<svg width="30" height="46" viewBox="0 0 30 46" fill="none" xmlns="http://www.w3.org/2000/svg">
<path d="M15 0C19.3265 1.89116e-07 23.1004 2.75432 25.7432 6.90723C28.2183 10.7968 29.7826 16.0188 29.9785 21.7715C29.9926 22.0125 30 22.2554 30 22.5C30 22.5629 29.998 22.6258 29.9971 22.6885C29.998 22.7922 30 22.896 30 23C30 29.2358 28.3933 34.928 25.7432 39.0928C23.1004 43.2457 19.3265 46 15 46C10.6735 46 6.8996 43.2457 4.25684 39.0928C1.60665 34.928 -4.73569e-08 29.2358 0 23C4.54577e-09 22.896 0.00106213 22.7922 0.00195312 22.6885C0.00100994 22.6258 2.86226e-09 22.5629 0 22.5C2.13807e-08 22.2554 0.00640517 22.0125 0.0205078 21.7715C0.216452 16.0187 1.78174 10.7968 4.25684 6.90723C6.8996 2.75432 10.6735 -1.89116e-07 15 0ZM24.9355 36.4932C22.3141 39.284 18.8564 41 15 41C11.1433 41 7.68501 39.2843 5.06348 36.4932C5.34167 37.0253 5.63583 37.5347 5.94434 38.0195C8.36857 41.829 11.5945 44 15 44C18.4055 44 21.6314 41.829 24.0557 38.0195C24.3641 37.5349 24.6574 37.0251 24.9355 36.4932ZM25.8408 31.832C23.0925 34.4111 19.2269 36 15 36C10.7728 36 6.90656 34.4114 4.1582 31.832C6.5157 36.1913 10.5534 39 15 39C19.4465 39 23.4833 36.1911 25.8408 31.832ZM25.4189 29.3652C22.7046 31.0132 19.0182 32 15 32C10.9818 32 7.29542 31.0132 4.58105 29.3652C4.57743 29.363 4.57394 29.3606 4.57031 29.3584C6.92168 32.1578 10.6837 34 15 34C19.316 34 23.0773 32.1575 25.4287 29.3584C25.4253 29.3605 25.4223 29.3632 25.4189 29.3652ZM15 15C11.2862 15 7.97178 15.9163 5.61914 17.3447C3.41692 18.6819 2.18361 20.3755 2.01953 22.1035C2.01238 22.2646 2.00622 22.4264 2.00293 22.5889C2.04198 24.4225 3.28636 26.2388 5.61914 27.6553C7.97178 29.0837 11.2862 30 15 30C18.7138 30 22.0282 29.0837 24.3809 27.6553C26.7128 26.2393 27.9562 24.4238 27.9961 22.5908C27.9928 22.4277 27.9867 22.2652 27.9795 22.1035C27.8154 20.3755 26.583 18.6819 24.3809 17.3447C22.0282 15.9163 18.7138 15 15 15ZM15 11C10.684 11 6.92171 12.8416 4.57031 15.6406C4.57379 15.6385 4.57757 15.6369 4.58105 15.6348C7.29542 13.9868 10.9818 13 15 13C19.0182 13 22.7046 13.9868 25.4189 15.6348C25.4222 15.6367 25.4255 15.6387 25.4287 15.6406C23.0773 12.8418 19.3157 11 15 11ZM15 7C11.3387 7 7.95396 8.90375 5.55664 12.0098C8.14994 10.121 11.4478 9 15 9C18.5519 9 21.8492 10.1213 24.4424 12.0098C22.0451 8.90403 18.6611 7 15 7ZM15 2C11.5945 2 8.36857 4.17101 5.94434 7.98047C5.63598 8.46503 5.34155 8.97402 5.06348 9.50586C7.68495 6.71508 11.1436 5 15 5C18.8562 5 22.3141 6.71536 24.9355 9.50586C24.6575 8.97416 24.3639 8.4649 24.0557 7.98047C21.6314 4.17101 18.4055 2 15 2Z" fill="#A3E636"/>
</svg>
