<svg width="1088" height="141" viewBox="0 0 1088 141" fill="none" xmlns="http://www.w3.org/2000/svg">
<path d="M262.658 2.46485L216.675 18.5834V36.1443L206.262 30.6251V18.0815L162.852 2.59021L205.823 7.10591C205.621 6.25824 205.614 5.3759 205.802 4.52508C205.99 3.67425 206.368 2.877 206.909 2.19325C207.449 1.5095 208.137 0.95695 208.921 0.577071C209.706 0.197192 210.566 0 211.437 0C212.309 0 213.169 0.197192 213.953 0.577071C214.738 0.95695 215.426 1.5095 215.966 2.19325C216.506 2.877 216.885 3.67425 217.073 4.52508C217.261 5.3759 217.254 6.25824 217.052 7.10591L262.658 2.46485Z" fill="#006BFF"/>
<path d="M101.751 2.71638L58.2778 18.2077V30.7513L47.8643 36.2703V18.584L1.88184 2.46546L47.4879 7.23208C47.2861 6.38441 47.279 5.50188 47.467 4.65105C47.6551 3.80023 48.0333 3.00317 48.5736 2.31942C49.1138 1.63567 49.802 1.08312 50.5863 0.703239C51.3707 0.32336 52.2309 0.125977 53.1024 0.125977C53.974 0.125977 54.8342 0.32336 55.6186 0.703239C56.4029 1.08312 57.091 1.63567 57.6312 2.31942C58.1714 3.00317 58.5498 3.80023 58.7378 4.65105C58.9259 5.50188 58.9188 6.38441 58.717 7.23208L101.751 2.71638Z" fill="#006BFF"/>
<path d="M99.6799 95.8508L99.4297 95.9759V95.6006L99.6799 95.8508Z" fill="#006BFF"/>
<path d="M164.484 95.2871V96.0404L163.981 95.7893L164.484 95.2871Z" fill="#006BFF"/>
<path d="M99.6799 95.8508L99.4297 95.9759V95.6006L99.6799 95.8508Z" fill="#006BFF"/>
<path d="M215.609 102.438V96.8557C215.184 95.8018 214.443 94.9049 213.489 94.2875C212.535 93.6701 211.413 93.3625 210.277 93.4063C209.222 93.4719 208.206 93.8291 207.342 94.4381C206.478 95.0472 205.8 95.8842 205.384 96.8557V103.128L174.959 86.3819L168.247 82.6816L164.546 80.6118V54.9602L166.49 53.5804L199.801 31.19V22.9114L180.417 32.8208L166.992 39.657L164.734 40.7859L157.771 44.2981L156.202 42.6675L153.254 39.657L145.224 31.5037L144.785 31.0647H118.312L110.533 39.2179L107.773 42.1657L106.268 43.7964L99.3044 40.2214L97.2344 39.2179L89.832 35.3922L64.7392 22.8486V31.0647L97.9244 53.3295L99.7436 54.5839V81.5525L96.2306 83.6223L89.9574 87.3227L58.4033 105.135V97.1066C57.97 96.1473 57.2877 95.3215 56.4273 94.7149C55.5668 94.1083 54.5596 93.7431 53.5103 93.6572C52.3586 93.6142 51.2209 93.9206 50.2467 94.5363C49.2726 95.152 48.5076 96.0481 48.0525 97.1066V102.688L0 98.0474L4.26572 99.6781L48.178 114.981V140.068L58.5287 131.1V113.852L99.5554 96.1659V95.8522L107.773 102.751L108.275 103.19L111.851 106.263L114.548 108.521L120.32 113.288H143.091L150.055 107.455L151.435 106.263L155.889 102.563L156.328 102.124L163.856 95.8522L164.42 95.4133V96.1659L205.259 113.727V130.974L215.484 139.943V114.856L259.396 99.5525L263.662 97.922L215.609 102.438ZM140.331 106.263H122.829L115.615 99.9916L117.309 87.9499L119.881 69.1345V68.131L122.139 51.7615L123.958 39.2179H139.076L141.084 52.0752L143.593 68.2564V69.5734L146.542 88.3888L148.173 99.0509L140.331 106.263Z" fill="#006BFF"/>
<path d="M164.484 95.2871V96.0404L163.981 95.7893L164.484 95.2871Z" fill="#006BFF"/>
<path d="M118.438 31.001L118.375 31.1277V31.001H118.438Z" fill="#006BFF"/>
<path d="M118.438 31.001L118.375 31.1277V31.001H118.438Z" fill="#006BFF"/>
<path d="M1075.05 101.308L1055.8 78.3346H1071.15L1087.82 98.0262V101.308H1075.05ZM1024.13 101.308V37.5322H1075.58C1077.83 37.5322 1079.9 38.094 1081.79 39.2175C1083.68 40.3411 1085.19 41.849 1086.31 43.7413C1087.44 45.5744 1088 47.6146 1088 49.8616V67.0696C1088 69.3167 1087.44 71.3864 1086.31 73.2787C1085.19 75.171 1083.68 76.6789 1081.79 77.8024C1079.9 78.8668 1077.83 79.399 1075.58 79.399L1035.84 79.4877V101.308H1024.13ZM1036.91 67.6018H1075.05C1075.34 67.6018 1075.61 67.5131 1075.85 67.3357C1076.08 67.1583 1076.2 66.9218 1076.2 66.6261V50.3052C1076.2 50.0095 1076.08 49.7729 1075.85 49.5955C1075.61 49.359 1075.34 49.2407 1075.05 49.2407H1036.91C1036.61 49.2407 1036.35 49.359 1036.11 49.5955C1035.93 49.7729 1035.84 50.0095 1035.84 50.3052V66.6261C1035.84 66.9218 1035.93 67.1583 1036.11 67.3357C1036.35 67.5131 1036.61 67.6018 1036.91 67.6018Z" fill="white"/>
<path d="M962.831 101.308C960.584 101.308 958.515 100.746 956.622 99.6227C954.789 98.4991 953.311 97.0208 952.187 95.1876C951.064 93.2953 950.502 91.2257 950.502 88.9786V49.7728C950.502 47.5257 951.064 45.4856 952.187 43.6524C953.311 41.7601 954.789 40.2522 956.622 39.1287C958.515 38.0051 960.584 37.4434 962.831 37.4434H1002.04C1004.28 37.4434 1006.32 38.0051 1008.16 39.1287C1010.05 40.2522 1011.56 41.7601 1012.68 43.6524C1013.8 45.4856 1014.37 47.5257 1014.37 49.7728V88.9786C1014.37 91.2257 1013.8 93.2953 1012.68 95.1876C1011.56 97.0208 1010.05 98.4991 1008.16 99.6227C1006.32 100.746 1004.28 101.308 1002.04 101.308H962.831ZM963.275 89.5108H1001.42C1001.71 89.5108 1001.98 89.4221 1002.21 89.2447C1002.45 89.0081 1002.57 88.742 1002.57 88.4464V50.305C1002.57 50.0093 1002.45 49.7728 1002.21 49.5954C1001.98 49.3588 1001.71 49.2406 1001.42 49.2406H963.275C962.979 49.2406 962.713 49.3588 962.477 49.5954C962.299 49.7728 962.21 50.0093 962.21 50.305V88.4464C962.21 88.742 962.299 89.0081 962.477 89.2447C962.713 89.4221 962.979 89.5108 963.275 89.5108Z" fill="white"/>
<path d="M928.399 101.308L909.151 78.3346H924.496L941.172 98.0262V101.308H928.399ZM877.484 101.308V37.5322H928.931C931.178 37.5322 933.248 38.094 935.14 39.2175C937.032 40.3411 938.54 41.849 939.664 43.7413C940.787 45.5744 941.349 47.6146 941.349 49.8616V67.0696C941.349 69.3167 940.787 71.3864 939.664 73.2787C938.54 75.171 937.032 76.6789 935.14 77.8024C933.248 78.8668 931.178 79.399 928.931 79.399L889.193 79.4877V101.308H877.484ZM890.257 67.6018H928.399C928.694 67.6018 928.96 67.5131 929.197 67.3357C929.433 67.1583 929.552 66.9218 929.552 66.6261V50.3052C929.552 50.0095 929.433 49.7729 929.197 49.5955C928.96 49.359 928.694 49.2407 928.399 49.2407H890.257C889.962 49.2407 889.696 49.359 889.459 49.5955C889.282 49.7729 889.193 50.0095 889.193 50.3052V66.6261C889.193 66.9218 889.282 67.1583 889.459 67.3357C889.696 67.5131 889.962 67.6018 890.257 67.6018Z" fill="white"/>
<path d="M809.75 101.308V37.4434H868.559V49.2406H821.547V63.4327H859.334V75.3186H821.547V89.5108H868.559V101.308H809.75Z" fill="white"/>
<path d="M739.408 101.308V37.5322H790.855C793.102 37.5322 795.171 38.094 797.064 39.2175C798.956 40.3411 800.464 41.849 801.587 43.7413C802.711 45.5744 803.273 47.6146 803.273 49.8616V67.0696C803.273 69.3167 802.711 71.3864 801.587 73.2787C800.464 75.171 798.956 76.6789 797.064 77.8024C795.171 78.8668 793.102 79.399 790.855 79.399L751.117 79.4877V101.308H739.408ZM752.181 67.6018H790.322C790.618 67.6018 790.884 67.5131 791.121 67.3357C791.357 67.1583 791.476 66.9218 791.476 66.6261V50.3052C791.476 50.0095 791.357 49.7729 791.121 49.5955C790.884 49.359 790.618 49.2407 790.322 49.2407H752.181C751.885 49.2407 751.619 49.359 751.383 49.5955C751.205 49.7729 751.117 50.0095 751.117 50.3052V66.6261C751.117 66.9218 751.205 67.1583 751.383 67.3357C751.619 67.5131 751.885 67.6018 752.181 67.6018Z" fill="white"/>
<path d="M657.118 101.308V37.4434H669.98L693.131 65.0293L716.193 37.4434H729.143V101.308H717.346V54.4739L693.131 83.3017L668.827 54.5626V101.308H657.118Z" fill="white"/>
<path d="M591.376 101.308V37.4434H650.185V49.2406H603.173V63.4327H640.96V75.3186H603.173V89.5108H650.185V101.308H591.376Z" fill="white"/>
<path d="M529.895 101.308C527.648 101.308 525.578 100.746 523.686 99.6227C521.853 98.4991 520.374 97.0208 519.251 95.1876C518.127 93.2953 517.565 91.2257 517.565 88.9786V49.7728C517.565 47.5257 518.127 45.4856 519.251 43.6524C520.374 41.7601 521.853 40.2522 523.686 39.1287C525.578 38.0051 527.648 37.4434 529.895 37.4434H569.101C571.348 37.4434 573.388 38.0051 575.221 39.1287C577.113 40.2522 578.621 41.7601 579.745 43.6524C580.868 45.4856 581.43 47.5257 581.43 49.7728V88.9786C581.43 91.2257 580.868 93.2953 579.745 95.1876C578.621 97.0208 577.113 98.4991 575.221 99.6227C573.388 100.746 571.348 101.308 569.101 101.308H529.895ZM530.338 89.5108H568.48C568.775 89.5108 569.042 89.4221 569.278 89.2447C569.515 89.0081 569.633 88.742 569.633 88.4464V50.305C569.633 50.0093 569.515 49.7728 569.278 49.5954C569.042 49.3588 568.775 49.2406 568.48 49.2406H530.338C530.043 49.2406 529.777 49.3588 529.54 49.5954C529.363 49.7728 529.274 50.0093 529.274 50.305V88.4464C529.274 88.742 529.363 89.0081 529.54 89.2447C529.777 89.4221 530.043 89.5108 530.338 89.5108Z" fill="white"/>
<path d="M495.462 101.308L476.214 78.3346H491.559L508.235 98.0262V101.308H495.462ZM444.548 101.308V37.5322H495.994C498.241 37.5322 500.311 38.094 502.203 39.2175C504.096 40.3411 505.604 41.849 506.727 43.7413C507.851 45.5744 508.412 47.6146 508.412 49.8616V67.0696C508.412 69.3167 507.851 71.3864 506.727 73.2787C505.604 75.171 504.096 76.6789 502.203 77.8024C500.311 78.8668 498.241 79.399 495.994 79.399L456.256 79.4877V101.308H444.548ZM457.321 67.6018H495.462C495.758 67.6018 496.024 67.5131 496.26 67.3357C496.497 67.1583 496.615 66.9218 496.615 66.6261V50.3052C496.615 50.0095 496.497 49.7729 496.26 49.5955C496.024 49.359 495.758 49.2407 495.462 49.2407H457.321C457.025 49.2407 456.759 49.359 456.522 49.5955C456.345 49.7729 456.256 50.0095 456.256 50.3052V66.6261C456.256 66.9218 456.345 67.1583 456.522 67.3357C456.759 67.5131 457.025 67.6018 457.321 67.6018Z" fill="white"/>
<path d="M376.813 101.308V37.4434H435.622V49.2406H388.611V63.4327H426.397V75.3186H388.611V89.5108H435.622V101.308H376.813Z" fill="white"/>
<path d="M302.665 101.308V49.7728C302.665 47.5257 303.227 45.4856 304.35 43.6524C305.474 41.7601 306.952 40.2522 308.785 39.1287C310.678 38.0051 312.747 37.4434 314.994 37.4434H354.112C356.359 37.4434 358.428 38.0051 360.321 39.1287C362.213 40.2522 363.721 41.7601 364.844 43.6524C365.968 45.4856 366.53 47.5257 366.53 49.7728V101.308H354.732V79.8424H314.374V101.308H302.665ZM314.374 68.1339H354.732V50.305C354.732 50.0093 354.614 49.7728 354.378 49.5954C354.141 49.3588 353.875 49.2406 353.579 49.2406H315.438C315.142 49.2406 314.876 49.3588 314.64 49.5954C314.462 49.7728 314.374 50.0093 314.374 50.305V68.1339Z" fill="white"/>
</svg>
